# xmcd
#
# Track frame offsets:
# 150
# 19100
# 41472
# 59940
# 78955
# 99410
# 115285
# 135397
# 150925
# 171472
# 190202
# 209305
# 228257
# 241450
#
# Disc length: 3492 seconds
#
#
# Revision: 2
# Processed by: cddbd v1.5.2PL0 Copyright (c) Steve Scherf et al.
# Submitted via: FreeRIP 2.951 
#
DISCID=b50da20e
DTITLE=Elimar Santos - BIS CD 1
DYEAR=2000
DGENRE=BREGA
TTITLE0=Escancarando De Vez
TTITLE1=Volta Coração
TTITLE2=É Gostoso Te Amar
TTITLE3=Alguém Me Disse
TTITLE4=Amor Ateu
TTITLE5=Se Queres Saber
TTITLE6=Missão
TTITLE7=Na Pele Do Tambor
TTITLE8=Ato De Amor
TTITLE9=Sonhos
TTITLE10=Gruda Em Mim
TTITLE11=Assim Você Me Mata
TTITLE12=Que Queres Tu De Mim
TTITLE13=Dona Da Minha Paixão
EXTD=
EXTT0=
EXTT1=
EXTT2=
EXTT3=
EXTT4=
EXTT5=
EXTT6=
EXTT7=
EXTT8=
EXTT9=
EXTT10=
EXTT11=
EXTT12=
EXTT13=
PLAYORDER=
